<svg id="Layer_1" data-name="Layer 1" xmlns="http://www.w3.org/2000/svg" viewBox="0 0 96 96"><defs><style>.cls-1{fill:#1fb19a;}.cls-2{fill:#fff;}</style></defs><title>icn-buy</title><circle class="cls-1" cx="48" cy="48" r="48"/><path class="cls-2" d="M76.69,49l-28.06,30A3.49,3.49,0,0,1,46.14,80h0a3.45,3.45,0,0,1-3.07-1.86L37.68,67.87,36.3,65.21l-2.92-5.58L32,57,30.46,54v0l-.09-.17-.89-1.7-.32-.61L18.78,31.68a3.35,3.35,0,0,1,.1-3.38,3.42,3.42,0,0,1,2.94-1.67H22l28.46-.13h.06a3.44,3.44,0,0,1,1.67.51l.06,0,0,0,1.19.83L41.8,40.69l-3.62-3.3a1.54,1.54,0,0,0-2.58,1.15l.23,18.33A1.57,1.57,0,0,0,36.34,58a1.51,1.51,0,0,0,1.12.39h0l18.27-1.46a1.53,1.53,0,0,0,.91-2.67L53.06,51l13-14.24L76,43.63l.09.06A3.46,3.46,0,0,1,76.69,49Z" transform="translate(-0.2 0.01)"/><path class="cls-2" d="M77.62,29.27a5.13,5.13,0,0,0-.51-.53,5.85,5.85,0,0,0-4.23-1.53h0a5.82,5.82,0,0,0-4,1.91l-3.2,3.51-1,1.14-1.05,1.15L49.75,50a1.54,1.54,0,0,0,.1,2.18L52,54.14l-13.09,1-.16-13.13L40.87,44a1.53,1.53,0,0,0,2.17-.1L56,29.68l1.05-1.15,1-1.15,4.09-4.48A8.85,8.85,0,0,1,68.3,20h0a8.82,8.82,0,0,1,6.39,2.31A8.91,8.91,0,0,1,77.62,29.27Z" transform="translate(-0.2 0.01)"/></svg>